<?xml version="1.0" standalone="no"?>
<!DOCTYPE svg PUBLIC "-//W3C//DTD SVG 20010904//EN"
 "http://www.w3.org/TR/2001/REC-SVG-20010904/DTD/svg10.dtd">
<svg version="1.0" xmlns="http://www.w3.org/2000/svg"
 width="637.000000pt" height="640.000000pt" viewBox="0 0 637.000000 640.000000"
 preserveAspectRatio="xMidYMid meet">

<g transform="translate(0.000000,640.000000) scale(0.100000,-0.100000)"
fill="#000000" stroke="none">
<path d="M3021 5758 c-10 -3 -58 -9 -107 -13 -49 -3 -95 -7 -101 -7 -7 -1 -13
-4 -13 -8 0 -3 -17 -6 -37 -5 -21 0 -40 -3 -43 -6 -3 -4 -23 -9 -45 -11 -22
-3 -50 -10 -62 -16 -12 -7 -35 -12 -51 -12 -16 0 -32 -3 -36 -7 -3 -4 -16 -8
-28 -10 -12 -2 -27 -8 -35 -14 -7 -6 -13 -8 -13 -3 0 5 -4 4 -8 -3 -4 -6 -19
-13 -34 -15 -14 -2 -34 -10 -44 -18 -15 -13 -16 -13 -9 -1 6 11 2 10 -16 -2
-13 -9 -32 -17 -42 -17 -10 0 -29 -7 -42 -16 -14 -9 -25 -13 -25 -9 0 4 -7 1
-16 -6 -9 -7 -25 -15 -37 -16 -12 -2 -28 -10 -37 -18 -9 -8 -31 -18 -48 -21
-18 -4 -32 -10 -32 -15 0 -5 -6 -9 -13 -9 -8 0 -22 -8 -31 -19 -9 -10 -30 -21
-46 -24 -15 -4 -39 -17 -52 -29 -12 -13 -40 -31 -60 -41 -20 -9 -38 -21 -40
-26 -2 -4 -16 -15 -33 -23 -16 -8 -29 -20 -28 -26 2 -7 0 -11 -5 -10 -11 3
-92 -51 -92 -62 0 -5 -12 -13 -27 -16 -15 -4 -44 -24 -64 -45 -20 -21 -39 -35
-43 -32 -3 4 -6 0 -6 -8 0 -8 -9 -21 -21 -29 -32 -22 -79 -67 -79 -75 0 -4
-29 -34 -65 -67 -35 -33 -67 -69 -71 -81 -8 -25 -50 -68 -58 -60 -3 4 -6 -3
-6 -13 0 -11 -13 -30 -30 -42 -16 -13 -30 -29 -30 -36 0 -7 -7 -19 -15 -26 -9
-7 -23 -28 -31 -46 -9 -19 -20 -34 -25 -34 -5 0 -9 -9 -9 -20 0 -11 -9 -25
-20 -32 -11 -7 -20 -21 -20 -31 0 -20 -24 -50 -33 -41 -3 3 -8 -8 -12 -25 -3
-16 -13 -35 -21 -42 -8 -6 -14 -22 -14 -36 0 -13 -4 -22 -8 -19 -4 2 -9 -5 -9
-17 -1 -12 -7 -23 -13 -25 -5 -2 -10 -10 -10 -18 0 -14 -20 -55 -31 -64 -15
-12 -50 -93 -52 -123 -2 -17 -10 -45 -19 -62 -8 -16 -21 -48 -28 -70 -7 -22
-15 -44 -18 -49 -3 -5 -6 -21 -8 -35 -3 -35 -8 -52 -22 -78 -7 -12 -12 -35
-12 -52 0 -16 -6 -58 -14 -93 -8 -35 -17 -85 -19 -113 -3 -27 -8 -61 -11 -75
-25 -109 -21 -534 6 -567 11 -14 11 -16 -2 -8 -12 7 -13 6 -3 -6 7 -9 8 -20 3
-29 -5 -8 -6 -19 -2 -25 4 -5 7 -21 8 -35 0 -14 4 -35 8 -46 3 -12 8 -39 11
-60 2 -22 11 -58 19 -82 8 -23 15 -46 15 -50 0 -4 7 -32 16 -62 9 -30 22 -71
27 -90 6 -19 18 -51 26 -70 9 -19 17 -42 18 -50 12 -65 16 -79 28 -89 8 -7 17
-24 21 -39 9 -36 56 -132 65 -132 3 0 7 -6 7 -13 0 -16 64 -148 81 -165 6 -7
12 -18 12 -23 0 -6 11 -21 25 -35 14 -14 25 -29 25 -34 0 -5 11 -21 25 -36 14
-15 25 -32 25 -38 0 -13 40 -50 40 -38 1 4 9 -11 20 -33 10 -22 30 -51 44 -64
14 -14 26 -30 26 -38 0 -7 4 -13 10 -13 10 0 45 -35 134 -134 32 -36 62 -63
67 -60 5 3 9 -3 9 -12 0 -10 3 -15 6 -11 7 7 17 -1 79 -60 24 -23 61 -51 82
-62 21 -10 46 -28 56 -39 10 -10 36 -27 57 -37 22 -10 38 -20 36 -23 -9 -8 23
-33 34 -27 5 3 10 2 10 -3 0 -9 37 -25 53 -23 4 1 7 -6 7 -14 0 -8 6 -14 13
-12 6 1 11 -4 9 -11 -1 -8 2 -11 7 -8 5 4 17 -1 25 -10 9 -8 16 -12 16 -8 0 4
10 -1 22 -12 13 -12 18 -13 13 -4 -7 12 -6 13 6 4 8 -6 22 -10 32 -9 10 2 17
-3 17 -11 0 -9 4 -13 9 -10 5 3 14 -1 21 -9 7 -8 16 -13 20 -10 4 3 13 -1 19
-9 6 -7 28 -12 51 -11 22 1 40 -2 40 -7 0 -4 3 -7 7 -6 15 3 43 -14 38 -23 -3
-4 4 -6 15 -4 13 3 20 -1 20 -12 0 -9 3 -13 7 -10 3 4 13 1 21 -5 22 -19 62
-18 62 1 0 14 2 14 10 1 8 -12 10 -10 11 10 0 17 3 20 7 10 4 -8 13 -16 21
-18 12 -3 12 -1 0 14 -9 12 -9 15 -1 10 9 -5 12 5 13 41 l2 48 7 -40 c6 -32 7
-34 9 -12 0 16 5 26 9 23 5 -3 9 1 9 9 0 8 -4 12 -9 9 -4 -3 -8 2 -8 11 0 10
5 13 13 9 9 -6 9 -5 0 7 -10 13 -10 16 2 16 8 0 15 -6 15 -12 0 -6 6 -12 14
-12 8 0 15 3 14 6 0 3 0 20 2 36 1 26 3 27 10 10 5 -11 9 -15 10 -10 1 6 5 1
9 -10 7 -15 9 -10 9 20 0 30 -2 35 -9 20 -7 -17 -8 -17 -6 6 1 25 27 38 27 14
0 -6 6 -12 13 -12 8 0 14 6 14 13 0 7 -4 11 -9 8 -4 -3 -8 2 -8 11 0 10 5 13
13 9 9 -6 9 -5 0 7 -10 13 -10 16 2 16 8 0 15 -6 15 -12 0 -6 6 -12 13 -12 8
0 14 6 14 13 0 7 -4 11 -8 9 -3 -3 -12 2 -19 10 -7 8 -17 12 -24 8 -6 -3 -6 0
2 8 13 15 17 43 4 35 -5 -3 -9 1 -9 9 0 8 4 12 9 9 4 -3 8 2 8 11 0 10 -5 13
-12 9 -8 -5 -8 -2 1 10 12 15 12 17 0 14 -8 -2 -17 -10 -21 -18 -4 -10 -7 -4
-8 15 -1 26 -3 27 -10 10 l-9 -20 -1 20 c-2 17 -3 16 -10 -5 -8 -25 -8 -25 -9
-2 -1 16 -5 21 -13 16 -10 -6 -10 -5 -1 7 10 13 10 16 -2 16 -8 0 -15 -5 -15
-10 0 -6 -9 0 -20 13 -11 13 -20 19 -20 15 0 -4 -9 0 -20 10 -12 11 -20 13
-20 6 0 -7 -5 -9 -10 -6 -6 4 -8 11 -5 16 6 8 -9 13 -19 7 -2 -2 -13 5 -23 15
-11 9 -24 14 -28 10 -5 -5 -3 1 5 12 8 11 10 17 5 12 -4 -4 -18 1 -29 10 -20
17 -20 17 -6 -2 9 -13 4 -11 -15 6 -17 15 -38 25 -47 24 -10 -2 -16 2 -15 8 1
6 -9 12 -23 12 -15 1 -24 6 -22 14 1 7 -2 10 -7 7 -5 -3 -14 1 -21 9 -7 8 -16
12 -21 9 -5 -3 -9 2 -9 11 0 9 -4 13 -10 10 -5 -3 -10 1 -10 10 0 9 -4 14 -9
11 -5 -3 -14 1 -21 8 -6 8 -24 18 -40 21 -16 3 -44 24 -63 45 -19 22 -37 37
-41 33 -3 -3 -6 -1 -6 6 0 7 -4 10 -9 6 -5 -3 -16 3 -23 12 -7 10 -31 33 -53
52 -22 19 -59 56 -82 83 -24 27 -43 47 -43 43 0 -3 -7 0 -15 9 -8 8 -15 19
-15 24 0 5 -13 23 -30 40 -16 18 -30 38 -30 46 0 8 -14 26 -30 39 -17 14 -30
30 -30 34 0 5 -14 22 -30 38 -17 16 -30 33 -30 38 0 11 -60 100 -74 109 -6 4
-7 8 -2 8 5 0 3 7 -4 15 -6 8 -9 19 -5 25 3 5 2 10 -3 10 -11 0 -92 162 -92
184 0 9 -4 16 -10 16 -5 0 -10 11 -10 24 0 14 -9 40 -19 58 -11 18 -21 49 -24
69 -2 21 -12 52 -21 70 -9 17 -16 48 -16 68 0 20 -7 56 -16 81 -9 25 -17 67
-19 95 -2 27 -8 51 -14 53 -7 2 -11 71 -10 205 1 177 5 239 23 347 2 14 7 49
10 78 3 29 10 62 16 72 8 15 8 20 -2 20 -10 0 -10 2 -1 8 7 5 18 34 24 65 5
32 19 73 30 91 10 18 20 46 22 62 2 16 15 54 30 84 15 30 27 60 27 67 0 6 3
13 8 15 7 3 49 83 77 148 17 40 31 64 63 103 12 16 22 33 22 38 0 6 21 34 46
64 25 29 47 57 48 61 0 5 23 33 50 62 27 29 56 63 65 75 8 12 20 25 25 29 6 3
38 32 71 62 33 31 63 56 67 56 5 0 29 20 56 45 26 25 65 54 88 64 22 11 46 26
53 35 8 9 19 16 26 16 7 0 21 11 31 25 10 14 24 25 31 25 7 0 13 5 13 11 0 5
5 7 10 4 6 -3 10 -2 10 2 0 5 10 9 22 10 11 1 24 6 27 10 7 10 114 63 126 63
5 0 16 7 26 16 9 8 30 17 46 18 44 5 83 17 83 27 0 5 10 9 23 9 13 0 27 4 33
10 5 5 28 11 51 13 23 2 51 11 61 20 11 10 35 17 58 17 22 0 44 4 49 9 6 5 47
11 91 14 45 2 85 7 90 10 24 14 403 25 424 12 6 -3 40 -10 78 -15 160 -22 205
-30 218 -41 8 -6 14 -8 14 -5 0 4 9 2 21 -4 11 -7 39 -13 61 -16 23 -2 50 -10
62 -17 12 -8 33 -17 47 -20 14 -4 52 -19 85 -34 32 -15 67 -28 77 -29 9 -1 21
-2 27 -3 5 0 24 -14 42 -30 18 -15 50 -34 71 -40 20 -7 37 -17 37 -22 0 -5 3
-8 8 -7 16 3 59 -22 86 -51 17 -17 35 -31 40 -31 6 0 24 -11 40 -25 16 -13 37
-27 47 -30 11 -4 19 -10 19 -15 0 -5 9 -7 20 -5 13 2 20 -2 20 -11 0 -8 6 -13
13 -12 6 2 11 -3 9 -10 -1 -6 4 -11 10 -10 7 2 11 -4 10 -12 -2 -8 0 -12 4 -7
4 4 21 -5 38 -20 17 -16 25 -21 18 -12 -9 12 -9 16 1 16 12 0 15 -11 19 -54 1
-6 9 -10 19 -8 11 2 18 -2 16 -8 -1 -7 7 -12 19 -11 11 1 21 -5 21 -12 0 -7
-5 -10 -11 -7 -6 3 4 -10 23 -30 19 -20 38 -34 43 -31 4 3 8 -1 8 -8 0 -9 3
-9 10 2 7 11 10 11 10 2 0 -10 5 -10 20 -2 15 8 20 8 20 -3 0 -8 7 -14 15 -14
10 0 12 4 5 12 -7 8 -5 12 5 12 8 0 15 -6 15 -12 0 -6 6 -12 13 -12 8 0 14 6
14 13 0 7 -5 12 -11 11 -6 -1 -10 3 -9 10 2 6 -5 10 -16 8 -10 -2 -18 3 -18
10 0 7 8 12 18 10 10 -2 18 -1 18 3 -4 27 3 62 11 57 6 -4 10 23 11 72 0 53 3
72 9 58 7 -17 9 -16 10 10 1 26 3 27 10 10 7 -17 9 -14 11 15 l2 35 7 -35 7
-35 2 40 c2 32 4 36 11 20 6 -14 9 5 9 58 1 60 -2 76 -11 71 -9 -6 -9 -3 0 9
12 14 11 16 -8 12 -18 -3 -20 -2 -10 10 10 12 8 13 -10 10 -18 -3 -20 -2 -10
10 10 12 8 13 -10 10 -18 -3 -20 -2 -10 10 10 12 8 13 -10 10 -18 -3 -20 -2
-10 10 10 12 8 13 -10 10 -18 -3 -20 -2 -10 10 10 12 8 13 -10 10 -19 -4 -20
-2 -8 12 9 12 9 15 1 9 -8 -4 -13 -1 -13 9 0 9 -4 14 -9 11 -5 -3 -15 2 -22
11 -12 14 -12 16 1 8 13 -8 13 -6 2 8 -8 9 -19 15 -25 14 -7 -1 -11 4 -9 11 1
9 -6 12 -20 10 -15 -2 -26 5 -35 22 -7 14 -13 21 -13 15 0 -5 -6 1 -13 15 -8
14 -19 24 -25 22 -7 -1 -11 3 -10 10 2 7 -6 12 -17 13 -20 0 -34 9 -126 83
-23 17 -44 32 -47 33 -30 3 -46 9 -52 20 -4 6 -14 9 -21 7 -13 -4 -21 0 -53
29 -8 7 -16 9 -20 6 -3 -4 -6 1 -6 11 0 9 -4 15 -9 11 -5 -3 -15 0 -23 7 -7 7
-20 14 -28 16 -8 2 -17 7 -20 10 -3 4 -12 8 -20 10 -8 2 -17 8 -18 13 -2 5 -8
6 -13 3 -6 -3 -16 0 -24 6 -8 7 -15 10 -15 6 0 -4 -14 1 -31 10 -17 8 -40 17
-52 20 -11 2 -23 7 -26 11 -3 5 -12 9 -18 11 -7 1 -19 3 -25 5 -7 1 -15 4 -18
7 -9 9 -76 30 -97 30 -11 0 -25 6 -31 13 -7 7 -28 13 -49 12 -21 0 -49 5 -62
12 -14 6 -28 10 -33 7 -4 -3 -8 -1 -8 4 0 5 -26 8 -58 8 -64 -2 -122 9 -122
23 0 5 -9 7 -20 4 -13 -3 -20 0 -20 8 0 11 -2 11 -10 -1 -9 -13 -10 -13 -10 0
0 13 -1 13 -10 0 -9 -13 -10 -13 -10 0 0 13 -1 13 -10 0 -9 -13 -10 -13 -10 0
0 13 -1 13 -10 0 -9 -13 -10 -13 -10 0 0 13 -1 13 -10 0 -5 -8 -10 -10 -10 -5
0 12 -378 15 -409 3z m1856 -690 c-3 -8 -6 -5 -6 6 -1 11 2 17 5 13 3 -3 4
-12 1 -19z m0 -40 c-3 -8 -6 -5 -6 6 -1 11 2 17 5 13 3 -3 4 -12 1 -19z m43 7
c0 -6 -6 -12 -13 -12 -8 0 -14 6 -14 12 0 6 6 12 14 12 7 0 13 -6 13 -12z m37
-40 c0 -6 -6 -12 -12 -12 -6 0 -12 6 -12 12 0 6 6 12 12 12 6 0 12 -6 12 -12z
m-40 -72 c-3 -10 -5 -2 -5 17 0 19 2 27 5 18 2 -10 2 -26 0 -35z m80 -15 c-3
-7 -5 -2 -5 12 0 14 2 19 5 13 2 -7 2 -19 0 -25z m20 -10 c-3 -8 -6 -5 -6 6
-1 11 2 17 5 13 3 -3 4 -12 1 -19z m-140 -20 c-3 -8 -6 -5 -6 6 -1 11 2 17 5
13 3 -3 4 -12 1 -19z m-40 -40 c-2 -13 -4 -5 -4 17 -1 22 1 32 4 23 2 -10 2
-28 0 -40z m80 0 c-3 -8 -6 -5 -6 6 -1 11 2 17 5 13 3 -3 4 -12 1 -19z m-40
-35 c-3 -10 -5 -2 -5 17 0 19 2 27 5 18 2 -10 2 -26 0 -35z m-40 -40 c-3 -10
-5 -2 -5 17 0 19 2 27 5 18 2 -10 2 -26 0 -35z m80 -5 c-3 -8 -6 -5 -6 6 -1
11 2 17 5 13 3 -3 4 -12 1 -19z m-40 -40 c-3 -8 -6 -5 -6 6 -1 11 2 17 5 13 3
-3 4 -12 1 -19z m-40 -40 c-3 -8 -6 -5 -6 6 -1 11 2 17 5 13 3 -3 4 -12 1 -19z
m80 0 c-3 -8 -6 -5 -6 6 -1 11 2 17 5 13 3 -3 4 -12 1 -19z m-80 -50 c-3 -8
-6 -5 -6 6 -1 11 2 17 5 13 3 -3 4 -12 1 -19z m83 9 c0 -8 -7 -14 -15 -14 -11
0 -12 4 -4 14 6 7 13 13 15 13 2 0 4 -6 4 -13z m-120 -45 c0 -12 -3 -12 -15
-2 -8 7 -15 13 -15 15 0 1 7 2 15 2 8 0 15 -7 15 -15z m80 1 c0 -8 -4 -12 -9
-9 -5 4 -11 0 -14 -6 -3 -7 -5 -4 -4 8 1 23 27 29 27 7z m-2283 -3445 c-3 -8
-6 -5 -6 6 -1 11 2 17 5 13 3 -3 4 -12 1 -19z m0 -40 c-3 -8 -6 -5 -6 6 -1 11
2 17 5 13 3 -3 4 -12 1 -19z m-200 -40 c-3 -8 -6 -5 -6 6 -1 11 2 17 5 13 3
-3 4 -12 1 -19z m160 0 c-3 -8 -6 -5 -6 6 -1 11 2 17 5 13 3 -3 4 -12 1 -19z
m40 0 c-3 -8 -6 -5 -6 6 -1 11 2 17 5 13 3 -3 4 -12 1 -19z m-160 -40 c-3 -8
-6 -5 -6 6 -1 11 2 17 5 13 3 -3 4 -12 1 -19z m120 0 c-3 -8 -6 -5 -6 6 -1 11
2 17 5 13 3 -3 4 -12 1 -19z m-160 -40 c-3 -8 -6 -5 -6 6 -1 11 2 17 5 13 3
-3 4 -12 1 -19z m80 0 c-3 -8 -6 -5 -6 6 -1 11 2 17 5 13 3 -3 4 -12 1 -19z
m60 -20 c-3 -8 -6 -5 -6 6 -1 11 2 17 5 13 3 -3 4 -12 1 -19z m-100 -20 c-3
-8 -6 -5 -6 6 -1 11 2 17 5 13 3 -3 4 -12 1 -19z m40 0 c-3 -8 -6 -5 -6 6 -1
11 2 17 5 13 3 -3 4 -12 1 -19z m-80 -40 c-3 -8 -6 -5 -6 6 -1 11 2 17 5 13 3
-3 4 -12 1 -19z m0 -40 c-3 -8 -6 -5 -6 6 -1 11 2 17 5 13 3 -3 4 -12 1 -19z
m40 0 c-3 -8 -6 -5 -6 6 -1 11 2 17 5 13 3 -3 4 -12 1 -19z m-62 -49 c5 0 13
8 17 18 7 16 8 16 5 -2 -1 -12 -10 -20 -22 -20 -12 0 -21 8 -22 20 -3 18 -2
18 5 2 4 -10 12 -18 17 -18z"/>
<path d="M5043 4915 c0 -33 2 -45 4 -27 2 18 2 45 0 60 -2 15 -4 0 -4 -33z"/>
<path d="M5061 4934 c0 -11 3 -14 6 -6 3 7 2 16 -1 19 -3 4 -6 -2 -5 -13z"/>
<path d="M5081 4914 c0 -11 3 -14 6 -6 3 7 2 16 -1 19 -3 4 -6 -2 -5 -13z"/>
<path d="M5061 4894 c0 -11 3 -14 6 -6 3 7 2 16 -1 19 -3 4 -6 -2 -5 -13z"/>
<path d="M5081 4874 c0 -11 3 -14 6 -6 3 7 2 16 -1 19 -3 4 -6 -2 -5 -13z"/>
<path d="M5041 4834 c0 -11 3 -14 6 -6 3 7 2 16 -1 19 -3 4 -6 -2 -5 -13z"/>
<path d="M5021 4814 c0 -11 3 -14 6 -6 3 7 2 16 -1 19 -3 4 -6 -2 -5 -13z"/>
<path d="M4961 4754 c0 -11 3 -14 6 -6 3 7 2 16 -1 19 -3 4 -6 -2 -5 -13z"/>
<path d="M4961 4714 c0 -11 3 -14 6 -6 3 7 2 16 -1 19 -3 4 -6 -2 -5 -13z"/>
<path d="M4961 4674 c0 -11 3 -14 6 -6 3 7 2 16 -1 19 -3 4 -6 -2 -5 -13z"/>
<path d="M4870 4495 c-7 -8 -17 -12 -24 -8 -6 4 -5 -1 3 -10 16 -20 22 -22 19
-4 -2 6 2 11 8 10 6 -1 11 5 11 13 0 18 -2 18 -17 -1z"/>
<path d="M4895 4430 c8 -9 12 -21 8 -25 -5 -5 0 -3 10 4 9 7 16 21 16 30 -1
13 -2 13 -6 -2 -2 -9 -9 -15 -14 -11 -5 3 -7 9 -5 13 3 4 -1 8 -9 8 -13 0 -13
-3 0 -17z"/>
<path d="M5428 4417 c12 -14 11 -16 -7 -12 -14 2 -21 -1 -21 -11 0 -8 4 -13 8
-10 5 3 9 -1 9 -9 0 -8 -4 -12 -9 -9 -4 3 -8 -2 -8 -11 0 -9 -4 -13 -10 -10
-5 3 -10 -1 -10 -10 0 -9 -4 -13 -10 -10 -5 3 -10 -1 -10 -10 0 -9 -4 -13 -10
-10 -6 4 -10 -8 -11 -27 -1 -31 -1 -32 -9 -8 -6 20 -8 14 -10 -30 -2 -47 -3
-51 -10 -25 -6 25 -8 26 -9 7 0 -13 -5 -20 -11 -17 -6 4 -10 -7 -10 -26 0 -37
-9 -35 -12 3 -2 25 -25 36 -25 12 0 -7 4 -11 9 -8 4 3 8 -2 8 -11 0 -9 -4 -13
-10 -10 -6 4 -10 -8 -11 -27 -1 -31 -1 -32 -9 -8 -7 22 -8 22 -10 5 -2 -15 -4
-12 -10 10 -6 25 -8 20 -10 -30 -1 -46 -4 -54 -10 -35 -6 20 -9 14 -11 -30
l-2 -55 -7 50 c-6 47 -7 47 -8 12 -1 -21 -6 -36 -11 -33 -5 3 -14 -1 -21 -9
-10 -12 -8 -13 10 -10 18 3 20 2 10 -10 -10 -12 -8 -13 9 -10 15 3 19 0 14 -8
-11 -18 -13 -38 -2 -31 5 3 9 -2 9 -11 0 -9 -4 -13 -10 -10 -16 10 -11 -1 7
-16 10 -8 14 -9 10 -2 -4 6 -3 14 2 17 10 6 10 -11 0 -29 -6 -11 -5 -19 6 -52
4 -13 11 -21 14 -18 4 2 8 -2 8 -10 0 -8 -3 -12 -7 -10 -4 2 -7 -2 -7 -10 0
-8 4 -12 9 -9 4 3 8 -6 8 -20 0 -14 5 -28 10 -31 8 -5 8 -11 1 -19 -7 -9 -7
-17 2 -26 10 -10 9 -11 -3 -5 -13 8 -13 7 -1 -8 7 -9 10 -17 6 -17 -4 0 -2 -7
5 -15 9 -11 16 -12 25 -5 8 7 12 5 12 -4 0 -8 -8 -13 -18 -11 -17 3 -20 -10
-7 -31 4 -6 8 -30 9 -53 2 -23 7 -45 12 -48 4 -3 7 -141 7 -306 -2 -285 -3
-303 -22 -323 -13 -15 -16 -24 -9 -29 6 -3 8 -12 4 -18 -8 -12 -10 -22 -15
-67 -2 -14 -9 -33 -17 -42 -8 -9 -16 -31 -17 -50 -2 -18 -4 -40 -5 -48 0 -8
-13 -40 -27 -70 -15 -30 -28 -68 -30 -84 -2 -16 -17 -49 -33 -72 -16 -23 -29
-56 -29 -72 0 -16 -9 -37 -20 -47 -11 -10 -20 -23 -20 -30 0 -7 -18 -40 -40
-74 -22 -34 -40 -65 -40 -69 -1 -4 -14 -23 -30 -42 -17 -19 -30 -40 -30 -46 0
-6 -11 -19 -25 -28 -14 -9 -23 -20 -21 -25 3 -4 -13 -25 -34 -46 -22 -22 -40
-43 -40 -47 0 -14 -47 -58 -54 -51 -3 4 -6 0 -6 -9 0 -15 -155 -168 -171 -168
-5 0 -9 -7 -9 -15 0 -8 -4 -15 -9 -15 -5 0 -17 -7 -25 -16 -9 -9 -23 -17 -31
-18 -13 -2 -45 -27 -133 -104 -13 -11 -31 -19 -40 -18 -9 2 -24 -5 -32 -14
-18 -20 -54 -40 -82 -45 -12 -3 -25 -9 -28 -15 -4 -6 -14 -12 -22 -14 -8 -1
-29 -14 -47 -28 -18 -16 -40 -25 -52 -23 -17 3 -19 1 -9 -10 9 -11 7 -13 -7
-10 -10 1 -24 -2 -31 -8 -8 -6 -23 -12 -35 -14 -11 -2 -27 -9 -36 -16 -12 -10
-13 -9 -6 3 7 12 6 13 -6 4 -8 -6 -26 -10 -41 -9 -16 1 -28 -3 -28 -10 0 -6
-11 -12 -25 -13 -48 -3 -55 -5 -55 -15 0 -6 -3 -7 -7 -4 -3 4 -13 1 -21 -5
-18 -16 -82 -18 -82 -4 0 7 -3 8 -8 1 -14 -19 -91 -54 -98 -44 -4 7 -10 6 -18
0 -9 -7 -16 -7 -23 0 -8 8 -13 7 -18 -2 -5 -7 -4 -10 2 -6 6 4 16 1 21 -6 9
-10 -2 -13 -51 -13 -38 0 -61 -4 -60 -10 1 -6 -4 -11 -12 -11 -8 0 -12 4 -9 8
2 4 0 10 -6 14 -5 3 -10 0 -10 -8 0 -7 -7 -14 -15 -14 -8 0 -12 4 -9 8 2 4 0
10 -6 14 -5 3 -10 -1 -10 -9 0 -9 -7 -13 -20 -11 -16 3 -20 -2 -20 -21 0 -15
-4 -23 -10 -19 -6 4 -8 10 -6 14 3 4 -1 8 -8 8 -15 0 -15 -14 -2 -36 6 -10 5
-12 -2 -7 -7 4 -12 1 -12 -9 0 -9 -4 -13 -10 -10 -5 3 -10 -1 -10 -10 0 -9 5
-13 10 -10 6 3 10 -1 10 -10 0 -9 -4 -13 -10 -10 -6 4 -10 -8 -11 -27 -1 -31
-1 -32 -9 -8 -6 19 -8 21 -9 6 -1 -18 -2 -18 -21 -1 -20 18 -20 17 -20 -19 0
-22 -4 -35 -10 -31 -5 3 -10 -1 -10 -10 0 -9 5 -13 10 -10 6 3 10 -1 10 -10 0
-9 -4 -13 -10 -10 -5 3 -10 -1 -10 -10 0 -9 -4 -13 -10 -10 -6 4 -10 -7 -10
-27 0 -18 -4 -28 -8 -23 -17 23 -32 14 -32 -20 0 -36 -19 -45 -31 -15 -3 8 -7
-10 -7 -40 l-2 -56 101 1 c55 0 102 -3 105 -7 2 -4 -4 -5 -16 -3 -11 2 -22 0
-24 -4 -6 -9 55 -8 71 2 6 4 15 3 18 -3 5 -8 11 -8 20 0 10 8 15 8 20 0 5 -8
11 -7 22 1 12 10 16 10 24 -2 5 -9 9 -9 9 -2 0 8 27 12 83 13 128 3 157 5 157
11 0 3 16 5 35 4 20 -1 37 1 40 5 2 3 18 5 34 4 17 -1 31 3 31 9 0 6 3 8 6 4
3 -3 27 1 52 8 26 8 58 16 72 17 14 2 41 12 61 21 20 10 51 19 70 21 42 4 79
16 79 26 0 4 12 6 26 4 15 -1 28 3 31 12 3 8 15 14 27 14 12 0 26 4 32 9 5 5
20 11 34 13 14 1 32 11 40 20 8 10 26 19 40 20 28 3 50 19 43 31 -4 6 41 11
51 5 2 -2 12 7 22 19 11 12 30 23 44 25 13 2 37 16 52 32 15 16 28 25 28 21 0
-4 8 -2 18 6 16 13 44 30 87 53 11 6 31 21 45 34 14 13 32 29 41 37 9 8 19 15
24 15 4 0 16 10 26 22 11 11 19 18 19 13 0 -4 15 6 34 21 18 16 48 40 65 53
17 13 31 29 31 36 0 8 10 15 23 17 14 2 29 16 40 41 11 21 26 37 36 37 18 0
61 42 61 60 0 5 8 14 18 19 9 6 14 11 10 11 -3 0 6 12 20 28 15 15 45 49 67
76 22 27 51 60 65 74 14 13 20 22 13 18 -17 -9 13 47 37 69 10 9 29 36 41 59
12 22 24 43 28 46 4 3 20 30 35 60 16 30 34 62 40 70 12 15 37 66 42 85 5 19
49 120 54 125 9 8 50 112 50 126 0 8 4 14 8 14 4 0 13 21 20 48 7 26 17 61 22
78 6 17 10 40 10 52 0 11 5 24 10 27 6 3 10 19 10 35 0 16 5 32 10 35 6 3 10
24 10 46 0 21 4 39 8 39 5 0 9 17 9 38 1 20 7 69 13 107 7 39 13 98 14 132 0
35 3 63 6 63 12 0 -2 449 -14 469 -5 7 -10 34 -12 60 -3 25 -10 71 -16 101 -7
30 -12 64 -12 75 -1 11 -5 23 -9 26 -5 4 -10 18 -10 33 -1 14 -5 26 -9 26 -5
0 -8 15 -8 34 0 19 -4 36 -9 38 -5 2 -11 20 -14 41 -3 20 -13 49 -22 63 -9 15
-12 23 -6 19 6 -3 2 10 -9 30 -11 20 -15 33 -8 29 7 -4 2 5 -12 21 -14 16 -19
25 -11 20 10 -6 12 -4 5 6 -5 8 -9 19 -9 24 -1 6 -7 9 -15 7 -8 -2 -12 0 -8 4
4 4 3 13 -3 21 -6 7 -8 13 -4 13 4 0 2 6 -5 14 -6 8 -13 29 -14 45 -1 17 -8
37 -16 44 -11 9 -11 8 0 -8 14 -19 14 -19 -3 -6 -14 11 -15 16 -5 29 10 13 10
14 1 8 -8 -4 -13 -1 -13 9 0 9 -4 14 -9 11 -5 -3 -14 1 -20 8 -9 10 -9 16 -1
21 8 5 8 11 -1 21 -6 7 -15 11 -20 8 -5 -3 -9 0 -9 7 0 7 -3 9 -6 6 -4 -3 -16
-1 -28 5 -19 10 -20 10 -8 -5z m-31 -109 c-3 -8 -6 -5 -6 6 -1 11 2 17 5 13 3
-3 4 -12 1 -19z m-40 -40 c-3 -8 -6 -5 -6 6 -1 11 2 17 5 13 3 -3 4 -12 1 -19z
m-160 -280 c-3 -7 -5 -2 -5 12 0 14 2 19 5 13 2 -7 2 -19 0 -25z m3 -36 c0
-12 -3 -12 -15 -2 -8 7 -15 13 -15 15 0 1 7 2 15 2 8 0 15 -7 15 -15z m-1963
-3004 c-3 -8 -6 -5 -6 6 -1 11 2 17 5 13 3 -3 4 -12 1 -19z m-60 -20 c-3 -8
-6 -5 -6 6 -1 11 2 17 5 13 3 -3 4 -12 1 -19z m20 -20 c-3 -8 -6 -5 -6 6 -1
11 2 17 5 13 3 -3 4 -12 1 -19z m-40 -80 c-3 -8 -6 -5 -6 6 -1 11 2 17 5 13 3
-3 4 -12 1 -19z m-20 -20 c-3 -8 -6 -5 -6 6 -1 11 2 17 5 13 3 -3 4 -12 1 -19z
m-60 -93 c0 -6 -6 -12 -12 -12 -6 0 -12 6 -12 12 0 6 6 12 12 12 6 0 12 -6 12
-12z"/>
<path d="M4931 4397 c-8 -10 -7 -14 2 -14 8 0 14 6 14 14 0 7 -1 13 -2 13 -2
0 -8 -6 -14 -13z"/>
<path d="M5381 4374 c0 -11 3 -14 6 -6 3 7 2 16 -1 19 -3 4 -6 -2 -5 -13z"/>
<path d="M5361 4354 c0 -11 3 -14 6 -6 3 7 2 16 -1 19 -3 4 -6 -2 -5 -13z"/>
<path d="M5281 4274 c0 -11 3 -14 6 -6 3 7 2 16 -1 19 -3 4 -6 -2 -5 -13z"/>
<path d="M5243 4235 c0 -6 6 -12 12 -12 6 0 12 6 12 12 0 6 -6 12 -12 12 -6 0
-12 -6 -12 -12z"/>
<path d="M5281 4234 c0 -11 3 -14 6 -6 3 7 2 16 -1 19 -3 4 -6 -2 -5 -13z"/>
<path d="M5203 4195 c0 -6 6 -12 12 -12 6 0 12 6 12 12 0 6 -6 12 -12 12 -6 0
-12 -6 -12 -12z"/>
<path d="M1830 3195 l0 -855 210 0 210 0 0 297 c0 163 -2 294 -5 292 -2 -3 -5
-64 -6 -135 0 -93 -4 -131 -13 -131 -13 0 -16 193 -3 214 5 8 1 11 -14 8 -17
-3 -19 -2 -9 10 10 12 8 13 -10 10 -16 -3 -19 -1 -13 8 17 22 1 63 -20 50 -7
-4 -6 0 2 10 13 16 37 14 27 -2 -3 -4 1 -8 8 -8 7 0 13 6 13 13 0 7 -5 12 -11
11 -6 -1 -10 18 -10 49 0 31 -4 51 -11 51 -7 0 -12 -6 -12 -13 0 -7 3 -11 7
-9 3 2 6 -11 6 -29 0 -18 -5 -33 -11 -33 -11 0 -11 -7 -16 625 l-3 422 -158 0
-158 0 0 -855z m347 -258 c0 -8 -6 -14 -14 -14 -9 0 -10 4 -2 14 6 7 12 13 14
13 1 0 2 -6 2 -13z"/>
<path d="M3358 3498 l-3 -553 -549 548 c-302 301 -550 547 -550 547 -1 0 0
-31 2 -70 2 -38 8 -70 13 -70 5 0 9 -9 9 -21 0 -11 5 -17 10 -14 6 4 9 1 8 -7
-2 -7 3 -12 9 -11 7 2 12 -3 10 -10 -1 -6 4 -11 10 -10 7 2 12 -3 10 -10 -1
-6 4 -11 10 -10 7 2 12 -3 10 -10 -1 -6 4 -11 10 -10 7 2 12 -2 10 -9 -1 -7 7
-17 19 -22 11 -5 25 -19 30 -30 5 -12 15 -20 22 -19 7 2 12 -4 12 -13 0 -8 5
-12 10 -9 6 3 10 -1 10 -10 0 -9 5 -13 10 -10 6 4 9 1 8 -7 -2 -7 3 -12 10
-11 6 2 12 -3 12 -9 0 -7 36 -49 81 -94 44 -44 73 -81 65 -81 -8 0 -14 5 -13
11 1 6 -4 10 -10 9 -7 -2 -12 3 -10 10 1 6 -4 11 -10 10 -7 -2 -12 2 -10 9 1
7 -3 12 -10 13 -15 0 -28 13 -28 28 -1 7 -6 11 -13 10 -7 -2 -11 3 -9 10 1 6
-4 11 -10 10 -7 -2 -12 2 -10 9 1 7 -3 12 -10 13 -15 0 -28 13 -28 28 -1 7 -6
11 -13 10 -7 -2 -11 3 -9 10 1 6 -4 11 -10 10 -7 -2 -12 0 -10 5 1 4 -1 7 -5
7 -4 0 -34 26 -66 58 -32 32 -62 54 -66 50 -4 -5 -6 3 -4 17 2 16 -1 24 -9 23
-7 -2 -12 0 -12 5 3 19 -2 22 -17 8 -11 -12 -15 -35 -15 -85 l0 -70 80 -78
c45 -43 86 -83 93 -89 7 -6 42 -43 77 -83 35 -39 70 -71 77 -71 8 0 14 -5 14
-11 0 -7 28 -41 63 -76 34 -36 61 -69 60 -74 -2 -5 3 -8 10 -6 6 1 11 -4 10
-10 -2 -7 3 -12 10 -10 6 1 11 -4 10 -10 -2 -7 2 -12 9 -10 6 1 17 -8 23 -20
7 -13 15 -20 18 -16 4 3 7 -2 7 -13 0 -16 2 -17 10 -4 8 12 10 10 10 -10 0
-20 2 -22 10 -10 8 12 10 10 10 -10 0 -20 2 -22 10 -10 8 12 10 11 10 -7 0
-13 3 -22 8 -22 26 4 32 -4 32 -44 0 -32 -4 -44 -15 -44 -11 0 -12 4 -4 13 6
7 9 21 6 31 -4 14 -5 13 -6 -4 0 -13 -7 -22 -13 -20 -7 1 -12 -3 -11 -9 1 -6
-4 -11 -12 -11 -8 0 -13 5 -12 11 1 6 -4 10 -10 9 -7 -2 -12 3 -10 10 1 6 -4
11 -11 9 -9 -2 -11 2 -6 10 17 26 12 35 -17 33 -16 -1 -27 1 -24 5 2 4 -8 19
-23 33 l-28 26 0 -43 c0 -26 5 -43 12 -43 12 0 13 15 2 33 -4 6 -1 11 6 11 13
0 15 -34 3 -54 -4 -6 -2 -15 5 -20 19 -11 39 -13 32 -2 -3 5 -11 6 -17 3 -7
-4 -8 -3 -4 1 9 11 37 16 36 7 -4 -27 3 -40 19 -37 11 2 19 -3 19 -10 0 -8 -3
-12 -7 -10 -4 2 -7 -2 -7 -10 0 -8 8 -12 20 -10 15 3 16 1 8 -9 -13 -16 5 -35
30 -31 9 2 16 -3 16 -11 0 -7 -5 -10 -11 -7 -6 3 0 -6 14 -22 43 -48 112 -114
119 -113 19 2 22 -4 10 -19 -7 -10 -10 -15 -5 -11 9 8 56 -35 56 -52 0 -6 5
-8 10 -5 6 3 10 1 10 -6 0 -7 60 -73 132 -146 l133 -133 290 0 290 0 433 432
433 433 -428 422 -428 422 -297 1 -298 0 -2 -552z m841 -302 c-47 -53 -405
-406 -411 -406 -8 0 -12 813 -3 822 6 6 420 -410 414 -416z m-1448 208 c2 3 9
-6 15 -19 9 -19 8 -22 -5 -20 -9 1 -14 9 -13 16 2 8 0 11 -4 7 -10 -10 -35 12
-28 24 4 5 11 5 18 -1 7 -6 15 -9 17 -7z m122 -131 c50 -55 60 -90 12 -43 -19
18 -33 38 -32 44 1 5 -3 10 -10 11 -15 0 -26 12 -29 30 -3 20 10 11 59 -42z
m-59 -261 c3 -5 -1 -9 -9 -9 -8 0 -12 4 -9 9 3 4 7 8 9 8 2 0 6 -4 9 -8z m103
-99 c0 -9 -4 -10 -14 -2 -7 6 -13 12 -13 14 0 1 6 2 13 2 8 0 14 -6 14 -14z
m40 -5 c-3 -8 -6 -5 -6 6 -1 11 2 17 5 13 3 -3 4 -12 1 -19z m-77 -24 c0 -8
-19 -13 -24 -6 -3 5 1 9 9 9 8 0 15 -2 15 -3z m94 -114 c6 -8 1 -7 -11 4 -13
10 -20 23 -16 29 4 7 8 6 11 -3 3 -8 10 -22 16 -30z"/>
<path d="M2880 3245 c13 -14 26 -25 28 -25 3 0 -5 11 -18 25 -13 14 -26 25
-28 25 -3 0 5 -11 18 -25z"/>
<path d="M2355 3770 c21 -22 41 -40 44 -40 3 0 -13 18 -34 40 -21 22 -41 40
-44 40 -3 0 13 -18 34 -40z"/>
<path d="M2440 3325 c0 -2 6 -8 13 -14 10 -8 14 -7 14 2 0 8 -6 14 -14 14 -7
0 -13 -1 -13 -2z"/>
<path d="M2562 3205 c0 -16 2 -22 5 -12 2 9 2 23 0 30 -3 6 -5 -1 -5 -18z"/>
<path d="M2581 3214 c0 -11 3 -14 6 -6 3 7 2 16 -1 19 -3 4 -6 -2 -5 -13z"/>
<path d="M2163 3197 c0 -8 6 -14 14 -14 9 0 10 4 2 14 -6 7 -12 13 -14 13 -1
0 -2 -6 -2 -13z"/>
<path d="M2603 3179 c1 -20 6 -36 12 -36 7 0 12 6 12 13 0 7 -4 11 -8 8 -4 -2
-10 8 -12 23 -3 22 -4 20 -4 -8z"/>
<path d="M2164 3135 c0 -19 5 -32 13 -32 9 0 10 4 3 12 -5 7 -7 15 -3 19 12
12 11 33 -1 33 -6 0 -12 -14 -12 -32z"/>
<path d="M2641 3114 c0 -11 3 -14 6 -6 3 7 2 16 -1 19 -3 4 -6 -2 -5 -13z"/>
<path d="M2844 2998 c1 -7 5 -19 10 -26 10 -17 37 3 35 27 -1 13 -2 12 -6 -2
-4 -17 -6 -17 -23 -2 -13 12 -18 13 -16 3z"/>
<path d="M2641 1154 c0 -11 3 -14 6 -6 3 7 2 16 -1 19 -3 4 -6 -2 -5 -13z"/>
<path d="M3383 1133 c0 -8 5 -9 11 -4 6 5 19 7 28 6 10 -2 20 0 22 4 3 4 -10
7 -28 7 -20 0 -33 -5 -33 -13z"/>
<path d="M2640 1115 c0 -6 6 -12 13 -12 8 0 14 6 14 12 0 6 -6 12 -14 12 -7 0
-13 -6 -13 -12z"/>
<path d="M2723 1115 c0 -6 6 -12 12 -12 6 0 12 6 12 12 0 6 -6 12 -12 12 -6 0
-12 -6 -12 -12z"/>
<path d="M2763 1115 c0 -6 6 -12 12 -12 6 0 12 6 12 12 0 6 -6 12 -12 12 -6 0
-12 -6 -12 -12z"/>
<path d="M2683 1075 c0 -6 6 -12 12 -12 6 0 12 6 12 12 0 6 -6 12 -12 12 -6 0
-12 -6 -12 -12z"/>
<path d="M2723 1075 c0 -6 6 -12 12 -12 6 0 12 6 12 12 0 6 -6 12 -12 12 -6 0
-12 -6 -12 -12z"/>
<path d="M2643 1035 c0 -6 6 -12 12 -12 6 0 12 6 12 12 0 6 -6 12 -12 12 -6 0
-12 -6 -12 -12z"/>
<path d="M3201 994 c0 -11 3 -14 6 -6 3 7 2 16 -1 19 -3 4 -6 -2 -5 -13z"/>
<path d="M2561 954 c0 -11 3 -14 6 -6 3 7 2 16 -1 19 -3 4 -6 -2 -5 -13z"/>
<path d="M3141 934 c0 -11 3 -14 6 -6 3 7 2 16 -1 19 -3 4 -6 -2 -5 -13z"/>
<path d="M2561 914 c0 -11 3 -14 6 -6 3 7 2 16 -1 19 -3 4 -6 -2 -5 -13z"/>
<path d="M3121 914 c0 -11 3 -14 6 -6 3 7 2 16 -1 19 -3 4 -6 -2 -5 -13z"/>
<path d="M3121 874 c0 -11 3 -14 6 -6 3 7 2 16 -1 19 -3 4 -6 -2 -5 -13z"/>
<path d="M2206 872 c-3 -5 1 -9 9 -9 8 0 12 4 9 9 -3 4 -7 8 -9 8 -2 0 -6 -4
-9 -8z"/>
<path d="M2481 834 c0 -11 3 -14 6 -6 3 7 2 16 -1 19 -3 4 -6 -2 -5 -13z"/>
<path d="M2563 795 c0 -6 6 -12 12 -12 6 0 12 6 12 12 0 6 -6 12 -12 12 -6 0
-12 -6 -12 -12z"/>
<path d="M3061 774 c0 -11 3 -14 6 -6 3 7 2 16 -1 19 -3 4 -6 -2 -5 -13z"/>
</g>
</svg>
